Coordinates
nRows=119
nColumns=2
inDegrees=yes
endheader
time	ankle_angle_r	
2.79133	 18.747209	
2.8629	 18.820176	
2.93448	 18.789167	
3.00605	 18.766680	
3.07762	 18.792260	
3.14919	 18.821459	
3.22077	 18.800212	
3.29234	 18.767666	
3.36391	 18.790653	
3.43548	 18.811432	
3.50706	 18.789872	
3.57863	 18.775104	
3.6502	 18.809347	
3.72177	 18.817926	
3.79335	 18.782849	
3.86492	 18.786152	
3.93649	 18.802730	
4.00806	 18.789935	
4.07964	 18.771507	
4.15121	 18.788908	
4.22278	 18.812532	
4.29435	 18.784540	
4.36593	 18.761832	
4.4375	 18.798054	
4.50907	 18.822366	
4.58065	 18.785854	
4.65222	 18.770771	
4.72379	 18.799549	
4.79536	 18.794784	
4.86694	 18.776616	
4.93851	 18.796755	
5.01008	 18.816146	
5.08165	 18.780640	
5.15323	 18.742620	
5.2248	 18.772810	
5.29637	 18.803991	
5.36794	 18.777620	
5.43952	 18.765868	
5.51109	 18.817471	
5.58266	 18.842112	
5.65423	 18.799050	
5.72581	 18.782977	
5.79738	 18.811066	
5.86895	 18.813771	
5.94052	 18.780806	
6.0121	 18.774587	
6.08367	 18.809118	
6.15524	 18.818958	
6.22681	 18.785929	
6.29839	 18.787280	
6.36996	 18.834475	
6.44153	 18.825204	
6.5131	 18.792565	
6.58468	 18.815053	
6.65625	 18.811031	
6.72782	 18.754287	
6.7994	 18.755257	
6.87097	 18.799375	
6.94254	 18.771671	
7.01411	 18.732204	
7.08569	 18.750902	
7.15726	 18.774077	
7.22883	 18.762906	
7.3004	 18.737771	
7.37198	 18.762800	
7.44355	 18.791860	
7.51512	 18.770030	
7.58669	 18.765319	
7.65827	 18.794345	
7.72984	 18.798945	
7.80141	 18.767393	
7.87298	 18.764275	
7.94456	 18.791408	
8.01613	 18.790887	
8.0877	 18.774898	
8.15927	 18.798961	
8.23085	 18.841569	
8.30242	 18.812920	
8.37399	 18.776044	
8.44556	 18.808481	
8.51714	 18.830022	
8.58871	 18.815936	
8.66028	 18.809616	
8.73185	 18.824173	
8.80343	 18.814480	
8.875	 18.778045	
8.94657	 18.770039	
9.01815	 18.775591	
9.08972	 18.770239	
9.16129	 18.745991	
9.23286	 18.739840	
9.30444	 18.761613	
9.37601	 18.749662	
9.44758	 18.737638	
9.51915	 18.760030	
9.59073	 18.761162	
9.6623	 18.743515	
9.73387	 18.752334	
9.80544	 18.770753	
9.87702	 18.780021	
9.94859	 18.775929	
10.0202	 18.782626	
10.0917	 18.821866	
10.1633	 18.822504	
10.2349	 18.796663	
10.3065	 18.807613	
10.378	 18.804050	
10.4496	 18.759637	
10.5212	 18.737441	
10.5927	 18.766599	
10.6643	 18.778697	
10.7359	 18.758387	
10.8075	 18.748874	
10.879	 18.762395	
10.9506	 18.786419	
11.0222	 18.774771	
11.0937	 18.778066	
11.1653	 18.820823	
11.2369	 18.808235	
